<?xml version="1.0" encoding="UTF-8"?>
<svg width="184px" height="184px" viewBox="0 0 184 184" version="1.1" xmlns="http://www.w3.org/2000/svg" xmlns:xlink="http://www.w3.org/1999/xlink">
    <title>编组备份-2</title>
    <g id="页面-1" stroke="none" stroke-width="1" fill="none" fill-rule="evenodd">
        <g id="编组备份-2" transform="translate(-0, 0)" fill-rule="nonzero">
            <path d="M38.6258389,43.1159444 C35.954885,43.1421195 33.2948375,44.1727653 31.3284308,46.1239031 L31.3284308,46.1239031 C18.184153,59.1743867 9.81574582,79.1678235 9.97824975,101.544288 L9.97824975,101.544288 C10.0524126,111.550822 11.8050557,121.101472 14.9667933,129.670556 L14.9667933,129.670556 C15.4892052,128.426146 16.1010489,127.270078 16.800143,125.937328 L16.800143,125.937328 C27.3759862,106.908008 49.6782876,92.7516254 76.5786869,89.7207635 L76.5786869,89.7207635 C69.454689,84.3712213 63.0297852,77.599497 57.6562491,69.4906598 L57.6562491,69.4906598 C57.1185683,68.6966809 56.5830688,67.9037926 56.1326384,67.0214725 L56.1326384,67.0214725 C37.6235496,79.1122014 24.4465529,93.8226245 18.4524481,109.895245 L18.4524481,109.895245 C22.8215135,89.6716851 35.6255147,72.3960993 53.0821452,61.6413927 L53.0821452,61.6413927 C51.5683501,58.6999624 50.4668134,55.5753063 49.2540324,52.504091 L49.2540324,52.504091 C48.1786708,49.7786056 47.2549068,46.938604 44.8337073,45.1194325 L44.8337073,45.1194325 C43.066886,43.7921352 40.9532443,43.137757 38.8363306,43.1159444 L38.8363306,43.1159444 L38.6258389,43.1159444 Z" id="Fill-1备份-2" fill="#3F66FF" transform="translate(43.2773, 86.3933) rotate(-90) translate(-43.2773, -86.3933)"></path>
            <path d="M69.4900403,126.344442 C68.6982426,126.882123 67.9042636,127.417623 67.0219436,127.868053 L67.0219436,127.868053 C79.1137631,146.377142 93.8220049,159.554139 109.895716,165.548243 L109.895716,165.548243 C89.6710656,161.179178 72.3965703,148.375177 61.6418638,130.918546 L61.6418638,130.918546 C58.6993429,132.432341 55.5757774,133.533878 52.5045621,134.746659 L52.5045621,134.746659 C49.7779861,135.822021 46.9390751,136.745785 45.1209942,139.166984 L45.1209942,139.166984 C42.0737728,143.220858 42.5743722,149.096084 46.1243742,152.672261 L46.1243742,152.672261 C59.1759484,165.816539 79.167204,174.184946 101.544759,174.022442 L101.544759,174.022442 C111.551293,173.948279 121.103034,172.195636 129.669936,169.033898 L129.669936,169.033898 C128.426618,168.511486 127.270549,167.899643 125.936708,167.200549 L125.936708,167.200549 C106.907389,156.624705 92.7520965,134.322404 89.7212346,107.422005 L89.7212346,107.422005 C84.3706017,114.546003 77.5988774,120.970906 69.4900403,126.344442" id="Fill-3备份-2" fill="#1A79FF" transform="translate(86.3933, 140.7234) rotate(-90) translate(-86.3933, -140.7234)"></path>
            <path d="M167.201638,58.0646843 C156.625795,77.0940038 134.323493,91.249296 107.422003,94.280158 L107.422003,94.280158 C114.546001,99.6307908 120.971996,106.402515 126.344441,114.511352 L126.344441,114.511352 C126.883212,115.30315 127.418712,116.097129 127.869142,116.979449 L127.869142,116.979449 C146.378231,104.887629 159.555228,90.1793876 165.548242,74.1056765 L165.548242,74.1056765 C161.180267,94.330327 148.375176,111.604822 130.918545,122.359529 L130.918545,122.359529 C132.43234,125.302049 133.534967,128.425615 134.746658,131.49683 L134.746658,131.49683 C135.82311,134.223406 136.746874,137.062317 139.166983,138.880398 L139.166983,138.880398 C143.220856,141.92762 149.097173,141.42702 152.672259,137.877018 L152.672259,137.877018 C165.816537,124.825444 174.186035,104.834188 174.02244,82.4566336 L174.02244,82.4566336 C173.949368,72.4500995 172.196725,62.8983583 169.033897,54.3314563 L169.033897,54.3314563 C168.512576,55.574775 167.900732,56.7308433 167.201638,58.0646843" id="Fill-5备份-2" fill="#14AEFF" transform="translate(140.7234, 97.6081) rotate(-90) translate(-140.7234, -97.6081)"></path>
            <path d="M82.4572039,9.97817753 C72.4506698,10.0512497 62.9000192,11.8038928 54.330936,14.966721 L54.330936,14.966721 C55.5753453,15.4880424 56.7314135,16.0998861 58.0641639,16.7989801 L58.0641639,16.7989801 C77.0934835,27.3748233 91.2498663,49.6771248 94.2807282,76.5786147 L94.2807282,76.5786147 C99.6302704,69.4546168 106.401995,63.0286224 114.510832,57.6561769 L114.510832,57.6561769 C115.304811,57.1174055 116.097699,56.581906 116.980019,56.1314756 L116.980019,56.1314756 C104.88929,37.6223867 90.1788672,24.44539 74.1062467,18.4523759 L74.1062467,18.4523759 C94.3298066,22.8203507 111.605392,35.6254424 122.360099,53.0820729 L122.360099,53.0820729 C125.301529,51.5682779 128.426185,50.4656506 131.497401,49.2539602 L131.497401,49.2539602 C134.222886,48.1775079 137.062888,47.253744 138.882059,44.8336351 L138.882059,44.8336351 C140.210447,43.0657232 140.864825,40.9520814 140.885547,38.8329865 L140.885547,38.8329865 L140.885547,38.6235855 C140.859372,35.9537222 139.828726,33.292584 137.877589,31.3283586 L137.877589,31.3283586 C124.952528,18.3105939 105.21757,9.97599627 83.1028571,9.97599627 L83.1028571,9.97599627 C82.8869122,9.97599627 82.6731487,9.97599627 82.4572039,9.97817753" id="Fill-7备份-2" fill="#09CBFF" transform="translate(97.6082, 43.2773) rotate(-90) translate(-97.6082, -43.2773)"></path>
        </g>
    </g>
</svg>