<?xml version="1.0" encoding="UTF-8"?>
<svg width="184px" height="184px" viewBox="0 0 184 184" version="1.1" xmlns="http://www.w3.org/2000/svg" xmlns:xlink="http://www.w3.org/1999/xlink">
    <title>编组备份-2</title>
    <g id="页面-1" stroke="none" stroke-width="1" fill="none" fill-rule="evenodd">
        <g id="编组备份-2" transform="translate(0, -0)" fill="#FFFFFF" fill-rule="nonzero">
            <path d="M38.6258388,43.1160353 C35.9548849,43.1422104 33.2948374,44.1728562 31.3284307,46.123994 L31.3284307,46.123994 C18.1841529,59.1744776 9.81574574,79.1679144 9.97824967,101.544379 L9.97824967,101.544379 C10.0524125,111.550913 11.8050556,121.101563 14.9667932,129.670647 L14.9667932,129.670647 C15.4892051,128.426237 16.1010488,127.270169 16.8001429,125.937419 L16.8001429,125.937419 C27.3759861,106.908099 49.6782875,92.7517163 76.5786868,89.7208544 L76.5786868,89.7208544 C69.4546889,84.3713122 63.0297851,77.5995879 57.656249,69.4907507 L57.656249,69.4907507 C57.1185682,68.6967718 56.5830687,67.9038835 56.1326383,67.0215634 L56.1326383,67.0215634 C37.6235495,79.1122923 24.4465528,93.8227154 18.452448,109.895336 L18.452448,109.895336 C22.8215134,89.671776 35.6255146,72.3961902 53.0821451,61.6414836 L53.0821451,61.6414836 C51.56835,58.7000533 50.4668133,55.5753972 49.2540323,52.5041819 L49.2540323,52.5041819 C48.1786707,49.7786965 47.2549067,46.9386949 44.8337072,45.1195234 L44.8337072,45.1195234 C43.0668859,43.7922261 40.9532442,43.1378479 38.8363305,43.1160353 L38.8363305,43.1160353 L38.6258388,43.1160353 Z" id="Fill-1备份-2" transform="translate(43.2773, 86.3933) rotate(-90) translate(-43.2773, -86.3933)"></path>
            <path d="M69.4900771,126.344498 C68.6982794,126.882179 67.9043004,127.417679 67.0219804,127.868109 L67.0219804,127.868109 C79.1137999,146.377198 93.8220417,159.554195 109.895753,165.548299 L109.895753,165.548299 C89.6711024,161.179234 72.3966071,148.375233 61.6419006,130.918602 L61.6419006,130.918602 C58.6993797,132.432397 55.5758142,133.533934 52.5045989,134.746715 L52.5045989,134.746715 C49.7780229,135.822077 46.9391119,136.745841 45.121031,139.16704 L45.121031,139.16704 C42.0738096,143.220914 42.574409,149.09614 46.124411,152.672317 L46.124411,152.672317 C59.1759852,165.816595 79.1672408,174.185002 101.544796,174.022498 L101.544796,174.022498 C111.55133,173.948335 121.103071,172.195692 129.669973,169.033954 L129.669973,169.033954 C128.426655,168.511542 127.270586,167.899699 125.936745,167.200605 L125.936745,167.200605 C106.907426,156.624761 92.7521333,134.32246 89.7212714,107.422061 L89.7212714,107.422061 C84.3706385,114.546059 77.5989142,120.970962 69.4900771,126.344498" id="Fill-3备份-2" transform="translate(86.3933, 140.7234) rotate(-90) translate(-86.3933, -140.7234)"></path>
            <path d="M167.201682,58.0647444 C156.625839,77.0940639 134.323537,91.2493561 107.422047,94.2802181 L107.422047,94.2802181 C114.546045,99.6308509 120.97204,106.402575 126.344485,114.511412 L126.344485,114.511412 C126.883256,115.30321 127.418756,116.097189 127.869186,116.979509 L127.869186,116.979509 C146.378275,104.887689 159.555272,90.1794477 165.548286,74.1057366 L165.548286,74.1057366 C161.180311,94.3303871 148.37522,111.604882 130.918589,122.359589 L130.918589,122.359589 C132.432384,125.302109 133.535011,128.425675 134.746702,131.49689 L134.746702,131.49689 C135.823154,134.223466 136.746918,137.062377 139.167027,138.880458 L139.167027,138.880458 C143.2209,141.92768 149.097217,141.42708 152.672303,137.877078 L152.672303,137.877078 C165.816581,124.825504 174.186079,104.834248 174.022484,82.4566937 L174.022484,82.4566937 C173.949412,72.4501596 172.196769,62.8984184 169.033941,54.3315164 L169.033941,54.3315164 C168.51262,55.5748351 167.900776,56.7309034 167.201682,58.0647444" id="Fill-5备份-2" transform="translate(140.7234, 97.6081) rotate(-90) translate(-140.7234, -97.6081)"></path>
            <path d="M82.4572235,9.97817754 C72.4506894,10.0512497 62.9000388,11.8038928 54.3309556,14.966721 L54.3309556,14.966721 C55.5753649,15.4880424 56.7314331,16.0998861 58.0641835,16.7989801 L58.0641835,16.7989801 C77.0935031,27.3748233 91.2498859,49.6771248 94.2807478,76.5786147 L94.2807478,76.5786147 C99.63029,69.4546168 106.402015,63.0286224 114.510852,57.6561769 L114.510852,57.6561769 C115.304831,57.1174055 116.097719,56.581906 116.980039,56.1314756 L116.980039,56.1314756 C104.88931,37.6223867 90.1788868,24.44539 74.1062663,18.4523759 L74.1062663,18.4523759 C94.3298262,22.8203507 111.605412,35.6254424 122.360119,53.0820729 L122.360119,53.0820729 C125.301549,51.5682779 128.426205,50.4656506 131.497421,49.2539602 L131.497421,49.2539602 C134.222906,48.1775079 137.062908,47.253744 138.882079,44.8336351 L138.882079,44.8336351 C140.210467,43.0657232 140.864845,40.9520814 140.885567,38.8329865 L140.885567,38.8329865 L140.885567,38.6235855 C140.859392,35.9537222 139.828746,33.292584 137.877609,31.3283586 L137.877609,31.3283586 C124.952548,18.3105939 105.21759,9.97599628 83.1028767,9.97599628 L83.1028767,9.97599628 C82.8869318,9.97599628 82.6731683,9.97599628 82.4572235,9.97817754" id="Fill-7备份-2" transform="translate(97.6083, 43.2773) rotate(-90) translate(-97.6083, -43.2773)"></path>
        </g>
    </g>
</svg>